<?xml version="1.0" standalone="no"?>
<!DOCTYPE svg PUBLIC "-//W3C//DTD SVG 20010904//EN"
 "http://www.w3.org/TR/2001/REC-SVG-20010904/DTD/svg10.dtd">
<svg version="1.0" xmlns="http://www.w3.org/2000/svg"
 width="500.000000pt" height="500.000000pt" viewBox="0 0 500.000000 500.000000"
 preserveAspectRatio="xMidYMid meet">
<metadata>
Created by potrace 1.11, written by Peter Selinger 2001-2013
</metadata>
<g transform="translate(0.000000,500.000000) scale(0.100000,-0.100000)"
fill="#000000" stroke="none">
<path d="M4866 4503 c-3 -4 -252 -72 -281 -78 -11 -2 -20 -4 -20 -5 0 -1 -7
-3 -15 -5 -8 -2 -24 -6 -35 -9 -11 -2 -105 -28 -210 -56 -104 -28 -197 -53
-205 -55 -8 -1 -40 -10 -71 -19 -31 -9 -65 -18 -75 -21 -11 -2 -62 -15 -114
-30 -52 -14 -102 -28 -110 -29 -8 -2 -42 -11 -75 -20 -33 -9 -67 -18 -76 -20
-55 -13 -258 -69 -279 -76 -14 -5 -36 -12 -50 -14 -22 -5 -54 -13 -122 -31
-10 -3 -26 -7 -36 -9 -10 -2 -41 -11 -69 -19 -28 -9 -54 -13 -57 -10 -3 4 -6
0 -6 -7 0 -7 -3 -11 -6 -8 -3 4 -20 2 -37 -3 -18 -6 -39 -12 -47 -14 -8 -1
-35 -9 -60 -16 -25 -7 -49 -13 -55 -15 -34 -8 -105 -27 -205 -54 -63 -17 -124
-33 -134 -35 -10 -3 -33 -9 -51 -15 -18 -6 -41 -12 -51 -14 -21 -5 -368 -97
-449 -121 -27 -7 -103 -28 -167 -46 -65 -17 -118 -34 -118 -36 0 -3 547 -552
1215 -1221 919 -918 1219 -1212 1227 -1204 7 7 9 12 5 12 -4 0 -3 8 2 18 6 11
12 30 15 43 3 13 14 56 25 94 11 39 22 81 25 95 3 14 15 59 26 100 11 41 22
82 25 90 17 70 27 108 50 190 14 52 27 102 29 110 11 42 67 250 76 280 21 73
161 596 166 620 3 14 8 34 11 45 9 25 11 33 18 69 3 16 8 33 11 38 3 4 7 16 9
25 2 10 11 45 20 78 9 33 25 92 35 130 25 95 40 151 95 354 26 95 48 181 50
190 2 9 31 117 65 241 34 124 63 232 65 241 2 10 17 67 34 128 17 61 31 115
31 120 0 9 -36 12 -44 4z"/>
<path d="M980 3823 c0 -7 -14 -60 -70 -268 -12 -44 -23 -87 -25 -95 -6 -25
-97 -364 -103 -380 -2 -8 -6 -22 -7 -30 -2 -8 -12 -47 -23 -85 -12 -39 -23
-81 -26 -95 -3 -14 -19 -74 -36 -135 -17 -60 -33 -121 -36 -135 -3 -14 -8 -34
-11 -45 -8 -23 -10 -31 -17 -64 -3 -13 -10 -38 -16 -56 -6 -18 -12 -41 -14
-51 -2 -10 -15 -59 -29 -109 -14 -49 -42 -153 -62 -230 -20 -77 -46 -171 -57
-210 -10 -38 -21 -77 -23 -85 -2 -8 -13 -51 -25 -95 -12 -44 -23 -91 -26 -104
-3 -14 -7 -28 -10 -33 -3 -4 -7 -17 -9 -29 -2 -11 -20 -77 -38 -147 -19 -70
-38 -140 -42 -157 -5 -16 -9 -32 -10 -35 -1 -3 -5 -18 -10 -35 -4 -16 -23 -88
-42 -160 -20 -71 -37 -136 -38 -145 -2 -8 -4 -15 -5 -15 -1 0 -3 -7 -5 -15 -1
-8 -8 -35 -16 -60 -7 -25 -13 -49 -14 -55 -1 -5 -3 -12 -4 -15 -2 -3 -4 -12
-6 -21 -1 -9 -10 -42 -20 -74 -9 -31 -15 -59 -13 -61 2 -2 40 6 83 18 44 11
85 21 90 22 18 4 98 26 150 41 47 14 498 135 520 139 6 2 30 8 55 15 25 7 53
15 62 17 19 4 28 7 88 23 19 5 87 23 150 40 63 17 158 42 210 57 52 14 100 26
105 28 6 1 19 5 30 9 11 3 31 8 45 11 14 3 75 19 135 36 61 17 119 32 130 34
11 3 20 5 20 6 0 1 7 3 15 5 8 1 35 8 60 16 25 7 50 13 55 14 6 1 12 3 15 4 3
2 12 4 20 6 16 3 109 28 245 65 44 12 87 23 95 25 8 2 30 8 48 14 18 5 33 10
35 9 1 0 22 5 47 12 25 7 52 14 60 15 8 2 15 4 15 5 0 2 10 4 50 13 11 3 72
19 135 37 63 17 122 33 130 34 8 2 76 20 150 40 149 41 162 44 188 50 88 20
103 27 91 43 -21 25 -2431 2433 -2435 2433 -2 0 -4 -3 -4 -7z"/>
</g>
</svg>
