<?xml version="1.0" encoding="UTF-8" standalone="no"?>
<!DOCTYPE svg PUBLIC "-//W3C//DTD SVG 20010904//EN"
              "http://www.w3.org/TR/2001/REC-SVG-20010904/DTD/svg10.dtd">

<svg xmlns="http://www.w3.org/2000/svg"
     width="19.3333in" height="11in"
     viewBox="0 0 1740 990">
  <path id="Selection"
        fill="#fff" stroke="none" stroke-width="0"
        d="M 600.00,0.00
           C 600.00,0.00 600.00,765.00 600.00,765.00
             600.00,765.00 690.00,765.00 690.00,765.00
             690.00,765.00 690.00,540.00 690.00,540.00
             690.00,540.00 1050.00,540.00 1050.00,540.00
             1050.00,540.00 1050.00,990.00 1050.00,990.00
             1050.00,990.00 1140.00,990.00 1140.00,990.00
             1140.00,990.00 1140.00,225.00 1140.00,225.00
             1140.00,225.00 1050.00,225.00 1050.00,225.00
             1050.00,225.00 1050.00,450.00 1050.00,450.00
             1050.00,450.00 690.00,450.00 690.00,450.00
             690.00,450.00 690.00,0.00 690.00,0.00
             690.00,0.00 600.00,0.00 600.00,0.00 Z
           M 0.00,225.00
           C 0.00,225.00 0.00,540.00 0.00,540.00
             0.00,540.00 450.00,540.00 450.00,540.00
             450.00,540.00 450.00,675.00 450.00,675.00
             450.00,675.00 90.00,675.00 90.00,675.00
             90.00,675.00 90.00,615.00 90.00,615.00
             90.00,615.00 0.00,615.00 0.00,615.00
             0.00,615.00 0.00,765.00 0.00,765.00
             0.00,765.00 540.00,765.00 540.00,765.00
             540.00,765.00 540.00,450.00 540.00,450.00
             540.00,450.00 90.00,450.00 90.00,450.00
             90.00,450.00 90.00,315.00 90.00,315.00
             90.00,315.00 450.00,315.00 450.00,315.00
             450.00,315.00 450.00,375.00 450.00,375.00
             450.00,375.00 540.00,375.00 540.00,375.00
             540.00,375.00 540.00,225.00 540.00,225.00
             540.00,225.00 0.00,225.00 0.00,225.00 Z
           M 1200.00,225.00
           C 1200.00,225.00 1200.00,315.00 1200.00,315.00
             1200.00,315.00 1425.00,315.00 1425.00,315.00
             1425.00,315.00 1425.00,765.00 1425.00,765.00
             1425.00,765.00 1515.00,765.00 1515.00,765.00
             1515.00,765.00 1515.00,315.00 1515.00,315.00
             1515.00,315.00 1740.00,315.00 1740.00,315.00
             1740.00,315.00 1740.00,225.00 1740.00,225.00
             1740.00,225.00 1200.00,225.00 1200.00,225.00 Z" />
</svg>
