<?xml version="1.0" encoding="UTF-8" standalone="no"?>
<!DOCTYPE svg PUBLIC "-//W3C//DTD SVG 20010904//EN"
              "http://www.w3.org/TR/2001/REC-SVG-20010904/DTD/svg10.dtd">

<svg xmlns="http://www.w3.org/2000/svg"
     width="6.94444in" height="4.16667in"
     viewBox="0 0 500 300">
  <path id="Selection #5"
        fill="#000000" stroke="none" stroke-width="0"
        d="M 125.72,175.28
           C 131.07,180.62 129.50,191.08 121.00,193.43
             108.14,196.97 100.45,178.32 115.00,172.57
             119.13,171.92 122.56,172.11 125.72,175.28 Z
           M 168.72,175.28
           C 174.07,180.62 172.50,191.08 164.00,193.43
             151.14,196.97 143.45,178.32 158.00,172.57
             162.13,171.92 165.56,172.11 168.72,175.28 Z
           M 168.72,131.28
           C 174.07,136.62 172.50,147.08 164.00,149.43
             151.14,152.97 143.45,134.32 158.00,128.57
             162.13,127.92 165.56,128.11 168.72,131.28 Z
           M 125.72,131.28
           C 131.07,136.62 129.50,147.08 121.00,149.43
             108.14,152.97 100.45,134.32 115.00,128.57
             119.13,127.92 122.56,128.11 125.72,131.28 Z" />
</svg>
