<?xml version="1.0" encoding="UTF-8" standalone="no"?>
<!DOCTYPE svg PUBLIC "-//W3C//DTD SVG 20010904//EN"
              "http://www.w3.org/TR/2001/REC-SVG-20010904/DTD/svg10.dtd">

<svg xmlns="http://www.w3.org/2000/svg"
     width="6.94444in" height="4.16667in"
     viewBox="0 0 500 300">
  <path id="Selection #4"
        fill="#fd3826" stroke="none" stroke-width="0"
        d="M 125.72,171.28
           C 131.07,176.62 129.50,187.08 121.00,189.43
             108.14,192.97 100.45,174.32 115.00,168.57
             119.13,167.92 122.56,168.11 125.72,171.28 Z
           M 168.72,171.28
           C 174.07,176.62 172.50,187.08 164.00,189.43
             151.14,192.97 143.45,174.32 158.00,168.57
             162.13,167.92 165.56,168.11 168.72,171.28 Z
           M 168.72,127.28
           C 174.07,132.62 172.50,143.08 164.00,145.43
             151.14,148.97 143.45,130.32 158.00,124.57
             162.13,123.92 165.56,124.11 168.72,127.28 Z
           M 125.72,127.28
           C 131.07,132.62 129.50,143.08 121.00,145.43
             108.14,148.97 100.45,130.32 115.00,124.57
             119.13,123.92 122.56,124.11 125.72,127.28 Z" />
</svg>
