<?xml version="1.0" encoding="UTF-8" standalone="no"?>
<!DOCTYPE svg PUBLIC "-//W3C//DTD SVG 20010904//EN"
              "http://www.w3.org/TR/2001/REC-SVG-20010904/DTD/svg10.dtd">

<svg xmlns="http://www.w3.org/2000/svg"
     width="6.94444in" height="4.16667in"
     viewBox="0 0 500 300">
  <path id="Selection"
        fill="#ffffff" stroke="none" stroke-width="0"
        d="M 238.17,56.13
           C 238.15,55.10 238.28,54.05 238.57,53.00
             239.84,48.39 242.60,45.84 247.00,44.57
             256.71,43.03 261.82,49.58 261.76,56.14
             261.77,56.19 261.77,56.20 261.81,56.20
             306.23,56.20 346.70,56.20 350.00,56.21
             350.00,56.21 362.00,56.21 362.00,56.21
             372.83,56.02 385.93,58.62 396.00,62.60
             409.14,67.80 420.93,74.96 430.99,85.01
             468.43,122.46 469.33,181.97 435.56,222.00
             427.79,231.21 414.95,240.97 404.00,246.11
             388.25,253.51 373.28,256.20 356.00,256.00
             346.62,255.89 332.74,252.85 324.00,249.40
             310.55,244.08 299.00,236.34 289.44,226.81
             284.56,222.25 280.81,219.94 280.81,219.94
             277.50,217.88 269.09,212.00 247.73,211.73
             231.91,212.55 221.34,217.84 216.34,222.25
             213.81,224.47 211.55,226.44 209.21,228.64
             201.75,235.62 192.33,242.20 184.00,246.11
             168.25,253.51 153.28,256.20 136.00,256.00
             126.62,255.89 112.74,252.85 104.00,249.40
             48.87,227.59 23.80,164.13 50.37,111.00
             62.27,87.20 83.68,68.87 109.00,60.75
             115.86,58.54 122.91,57.50 130.00,56.21
             130.00,56.21 142.00,56.21 142.00,56.21
             147.32,56.21 191.69,56.21 238.11,56.21
             238.16,56.20 238.16,56.18 238.17,56.13 Z" />
</svg>
