<?xml version="1.0" encoding="UTF-8" standalone="no"?>
<!DOCTYPE svg PUBLIC "-//W3C//DTD SVG 20010904//EN"
              "http://www.w3.org/TR/2001/REC-SVG-20010904/DTD/svg10.dtd">

<svg xmlns="http://www.w3.org/2000/svg"
     width="6.94444in" height="4.16667in"
     viewBox="0 0 500 300">
  <path id="Selection #2"
        fill="#000000" stroke="none" stroke-width="0"
        d="M 371.00,128.00
           C 371.00,128.00 371.00,150.00 371.00,150.00
             371.00,150.00 393.00,150.00 393.00,150.00
             393.00,150.00 393.00,172.00 393.00,172.00
             393.00,172.00 371.00,172.00 371.00,172.00
             371.00,172.00 371.00,194.00 371.00,194.00
             371.00,194.00 350.00,194.00 350.00,194.00
             350.00,194.00 350.00,172.00 350.00,172.00
             350.00,172.00 328.00,172.00 328.00,172.00
             328.00,172.00 328.00,150.00 328.00,150.00
             328.00,150.00 350.00,150.00 350.00,150.00
             350.00,150.00 350.00,128.00 350.00,128.00
             350.00,128.00 371.00,128.00 371.00,128.00 Z" />
</svg>
