<?xml version="1.0" encoding="UTF-8" standalone="no"?>
<!DOCTYPE svg PUBLIC "-//W3C//DTD SVG 20010904//EN"
              "http://www.w3.org/TR/2001/REC-SVG-20010904/DTD/svg10.dtd">

<svg xmlns="http://www.w3.org/2000/svg"
     width="0.0666667in" height="0.0666667in"
     viewBox="0 0 20 20">
  <path id="Selection"
        fill="#fff"
        d="M 8.00,2.00
           C 8.00,2.00 8.00,18.00 8.00,18.00
             8.00,18.00 12.00,18.00 12.00,18.00
             12.00,18.00 12.00,2.00 12.00,2.00
             12.00,2.00 8.00,2.00 8.00,2.00 Z
           M 14.00,7.00
           C 14.00,7.00 14.00,18.00 14.00,18.00
             14.00,18.00 18.00,18.00 18.00,18.00
             18.00,18.00 18.00,7.00 18.00,7.00
             18.00,7.00 14.00,7.00 14.00,7.00 Z
           M 2.00,12.00
           C 2.00,12.00 2.00,18.00 2.00,18.00
             2.00,18.00 6.00,18.00 6.00,18.00
             6.00,18.00 6.00,12.00 6.00,12.00
             6.00,12.00 2.00,12.00 2.00,12.00 Z" />
</svg>
