<svg width="512" height="512" xmlns="http://www.w3.org/2000/svg">
 <g>
  <title>background</title>
  <rect x="-1" y="-1" width="514" height="514" id="canvas_background" fill="none"/>
 </g>
 <defs>
  <filter height="200%" width="200%" y="-50%" x="-50%" id="svg_6_blur">
   <feGaussianBlur stdDeviation="2.4" in="SourceGraphic"/>
  </filter>
 </defs>
 <g>
  <title>Layer 1</title>
  <g opacity="0.33" filter="url(#svg_6_blur)" id="svg_6" stroke="null">
   <path id="svg_4" fill="#000000" d="m330.243808,65.55158c-0.01,-2.32492 -0.09005,-4.4494 -0.09005,-5.70205c0,0 0,-40.08468 0,-40.08468c0,-2.76584 0.35022,-7.1952 -1.74113,-9.2796c-1.80116,-1.80381 -4.90316,-1.7036 -7.26469,-1.74368c0,0 -24.0155,0 -24.0155,0c0,0 -75.04846,0 -75.04846,0c-7.4448,0 -31.20014,-0.74157 -36.79375,0.74156c-3.97256,2.86606 -3.22208,5.74213 -3.23209,10.28172c0,0 0,36.42696 0,45.88694c-0.04002,0.05011 -0.06004,0.04008 -0.11007,0.06013c-1.85119,0.50105 -2.89186,0.78165 -2.89186,0.78165c0,0 -20.01293,5.26111 -20.01293,5.26111c-2.4816,0.65138 -7.26469,1.64347 -8.86572,3.65773c0,0 -6.56424,22.51757 -6.56424,22.51757c0,0 -15.59006,58.12278 -15.59006,58.12278c0,0 -0.07005,0.24051 -0.14009,0.64135c-22.4545,28.1194 -35.88317,63.77473 -35.88317,102.57669c0,38.81199 13.42867,74.47733 35.89317,102.58671c0.02002,0.10022 0.02002,0.0902 0.02002,0.17036c5.03325,18.79972 9.24596,34.53296 9.24596,34.53296c0,0 9.16592,34.07197 9.16592,34.07197c0.86056,3.02639 2.36153,11.25377 4.43287,13.12773c1.50096,1.35286 6.23402,2.48525 8.28534,3.0264c0,0 18.01163,4.77007 18.01163,4.77007c0,0 1.83118,0.49104 4.83312,1.30276c0.11007,0.03006 0.08005,0.02004 0.17011,0.0501c0,8.5681 0,31.83726 0,31.83726c0,2.76584 -0.35022,7.1952 1.74113,9.2796c1.80116,1.80381 4.90316,1.7036 7.26469,1.74368c0,0 23.01486,0 23.01486,0c0,0 105.06783,0 105.06783,0c2.76178,0 7.18464,0.35074 9.26598,-1.74368c2.09135,-2.0844 1.74112,-6.51376 1.74112,-9.2796c0,0 0,-24.09089 0,-31.70698c0.06004,-0.02005 0.02002,0 0.07005,-0.02005c2.45158,-0.66139 3.93254,-1.05222 3.93254,-1.05222c0,0 18.01163,-4.93041 18.01163,-4.93041c2.42156,-0.61129 7.54487,-1.56331 9.28599,-3.19676c1.79116,-1.7036 2.49161,-5.81227 3.092,-8.19731c0,0 4.63299,-17.03599 4.63299,-17.03599c0,0 9.88638,-37.07833 15.06973,-56.52942c0.03002,-0.13027 0.02001,-0.08017 0.05003,-0.1904c19.74275,-24.70218 32.51099,-55.21664 35.3228,-88.59716c0.04003,0.01002 0.02002,0 0.05004,0.01002c9.15591,0 16.55068,0 16.55068,0c0,0 0,-28.05927 0,-28.05927c0,0 -7.41479,0 -16.59071,0c-0.01001,-0.01002 0.01001,0 -0.01001,-0.01002c-2.81181,-33.31037 -15.55004,-63.78475 -35.23274,-88.46689c-0.08006,-0.13027 -0.13009,-0.40084 -0.13009,-0.40084c-5.01323,-18.73959 -9.20594,-34.38264 -9.20594,-34.38264c0,0 -9.02583,-34.07197 -9.02583,-34.07197c-0.77049,-2.84601 -2.73176,-11.46422 -4.57295,-13.2079c-1.67108,-1.57333 -6.00387,-2.35498 -8.28535,-2.97629c0,0 -18.01163,-4.86027 -18.01163,-4.86027c0,0 -1.81117,-0.48101 -4.75306,-1.27269c-0.04003,-0.01002 -0.09006,-0.02004 -0.16011,-0.04008z" stroke="black"/>
  </g>
 </g>
</svg>
