<?xml version="1.0" encoding="UTF-8" standalone="no"?>
<svg
   xmlns:dc="http://purl.org/dc/elements/1.1/"
   xmlns:cc="http://creativecommons.org/ns#"
   xmlns:rdf="http://www.w3.org/1999/02/22-rdf-syntax-ns#"
   xmlns:svg="http://www.w3.org/2000/svg"
   xmlns="http://www.w3.org/2000/svg"
   id="svg37"
   version="1.1"
   height="512"
   width="512">
  <metadata
     id="metadata41">
    <rdf:RDF>
      <cc:Work
         rdf:about="">
        <dc:format>image/svg+xml</dc:format>
        <dc:type
           rdf:resource="http://purl.org/dc/dcmitype/StillImage" />
      </cc:Work>
    </rdf:RDF>
  </metadata>
  <defs
     id="defs5">
    <filter
       y="-50%"
       x="-50%"
       height="200%"
       width="200%"
       id="a">
      <feGaussianBlur
         id="feGaussianBlur2" />
    </filter>
  </defs>
  <path
     id="path7"
     d="M-1-1h514v514H-1z"
     stroke="null"
     fill="none" />
  <g
     id="g35"
     stroke="null">
    <path
       id="path9"
       d="M281.88155 50.52218l52.7687 14.09771 17.92144 4.83208c2.27005.61771 6.58116 1.39482 8.24387 2.95902 1.83197 1.73357 3.78341 10.30179 4.55005 13.13129l8.98064 33.87435 25.88653 96.64153 7.46727 27.89652c1.06533 4.20441 2.74795 8.57819 2.509 12.95196l-8.43304 32.87805-15.20335 56.78935-18.07079 67.7487-4.6098 16.93717c-.59738 2.37121-1.29433 6.45606-3.07651 8.14977-1.73241 1.62398-6.83006 2.57047-9.2395 3.17822l-17.92145 4.90181-50.77743 13.53978-24.89089 6.59554c-4.86866.63763-19.36512-4.13467-24.8909-5.59924l-55.75561-14.94456-17.92144-4.74241c-2.04105-.538-6.75041-1.66383-8.24387-3.00884-2.06096-1.86309-3.55442-10.04275-4.41066-13.05159l-9.12003-33.87435-25.88653-96.64153-6.94954-25.90391c-1.15493-4.26418-3.25573-10.72024-3.02673-14.94457l8.97068-34.87065 17.80197-66.7524 15.512-57.78565 6.53137-22.38696c1.59302-2.00258 6.35216-2.98892 8.82134-3.63651l19.91272-5.2306 74.67268-20.0058c6.19286-.50811 21.13735 4.45349 27.87781 6.27672z"
       stroke="none"
       fill="#171816" />
    <path
       id="path11"
       d="M406 242h30v28h-30z" />
    <ellipse
       id="ellipse13"
       ry="164"
       rx="164"
       filter="url(#a)"
       fill="#434542"
       cy="256"
       cx="256" />
    <ellipse
       id="ellipse15"
       ry="150"
       rx="150"
       filter="url(#a)"
       fill="#161815"
       cy="256"
       cx="256" />
    <ellipse
       id="ellipse17"
       ry="120"
       rx="120"
       filter="url(#a)"
       fill="#1d2022"
       cy="256"
       cx="256" />
    <path
       id="path33"
       d="M222.239646 435.74291h98.50501c2.3482.039977 5.432701-.059966 7.223701 1.739003 2.07955 2.078808 1.7313 6.496275 1.7313 9.254693v33.980515c0 2.758418.34825 7.175885-1.7313 9.254693-2.0696 2.088802-6.467501 1.739003-9.213701 1.739003H191.394643c-2.3482-.039977-5.432701.059966-7.223701-1.739003-2.07955-2.078808-1.7313-6.496275-1.7313-9.254693v-34.979942c.0199-4.347507-.5174-6.55624 3.21385-9.254693 5.572001-1.479152 29.183353-.739576 36.586154-.739576zm0-429.753569h98.50501c2.3482.039977 5.432701-.059966 7.223701 1.739003 2.07955 2.078808 1.7313 6.496275 1.7313 9.254693v39.977076c0 3.547966.597 13.971988-1.16415 16.560504-1.99 2.898338-6.676451 2.418613-9.780851 2.428607H191.394643c-2.3482-.039977-5.432701.059966-7.223701-1.739003-2.07955-2.078808-1.7313-6.496275-1.7313-9.254693V16.983037c.00995-4.527404-.7363-7.395759 3.21385-10.25412 5.572001-1.479152 29.183353-.739576 36.586154-.739576z"
       stroke="none"
       fill="#434542" />
  </g>
</svg>
