<?xml version="1.0" encoding="UTF-8" standalone="no"?>
<!DOCTYPE svg PUBLIC "-//W3C//DTD SVG 20010904//EN"
              "http://www.w3.org/TR/2001/REC-SVG-20010904/DTD/svg10.dtd">

<svg xmlns="http://www.w3.org/2000/svg"
     width="13.8889in" height="13.8889in"
     viewBox="0 0 1000 1000">
  <path id="Selection"
        fill="black" stroke="none" stroke-width="0"
        d="M 402.63,275.00
           C 399.37,262.27 399.85,254.89 400.00,242.00
             400.26,220.06 413.55,193.24 429.09,178.17
             459.23,148.94 507.25,140.93 545.00,159.81
             563.48,169.05 576.90,182.35 587.40,200.00
             598.92,219.37 600.25,236.21 600.00,258.00
             599.82,273.01 592.80,292.95 584.00,305.00
             584.00,305.00 623.00,343.00 623.00,343.00
             623.00,343.00 660.00,381.00 660.00,381.00
             660.00,381.00 642.04,397.00 642.04,397.00
             642.04,397.00 630.00,410.00 630.00,410.00
             630.00,410.00 554.00,334.00 554.00,334.00
             547.99,340.13 537.17,343.84 529.00,346.28
             502.46,354.19 467.67,350.55 445.00,334.00
             445.00,334.00 407.00,373.00 407.00,373.00
             407.00,373.00 334.00,446.00 334.00,446.00
             340.91,452.78 347.19,470.33 348.00,480.00
             348.00,480.00 652.00,480.00 652.00,480.00
             653.07,467.26 660.47,452.35 667.72,442.00
             704.86,388.97 785.45,384.71 826.92,435.00
             833.64,443.15 839.36,452.13 843.19,462.00
             847.14,472.19 849.98,483.02 850.00,494.00
             850.00,494.00 850.00,506.00 850.00,506.00
             849.96,529.43 838.30,552.96 822.71,569.96
             792.06,603.39 731.92,610.95 695.00,584.00
             695.00,584.00 657.00,623.00 657.00,623.00
             657.00,623.00 584.00,696.00 584.00,696.00
             590.69,702.56 595.06,715.95 597.37,725.00
             600.63,737.73 600.15,745.11 600.00,758.00
             599.74,779.94 586.45,806.76 570.91,821.83
             540.77,851.06 492.75,859.07 455.00,840.19
             436.52,830.95 423.10,817.65 412.60,800.00
             401.08,780.63 399.75,763.79 400.00,742.00
             400.18,726.99 407.20,707.05 416.00,695.00
             416.00,695.00 378.00,658.00 378.00,658.00
             378.00,658.00 340.00,619.00 340.00,619.00
             340.00,619.00 357.96,603.00 357.96,603.00
             357.96,603.00 370.00,590.00 370.00,590.00
             370.00,590.00 446.00,666.00 446.00,666.00
             452.01,659.87 462.83,656.16 471.00,653.72
             497.54,645.81 532.33,649.45 555.00,666.00
             555.00,666.00 593.00,627.00 593.00,627.00
             593.00,627.00 666.00,554.00 666.00,554.00
             659.09,547.22 652.81,529.67 652.00,520.00
             652.00,520.00 348.00,520.00 348.00,520.00
             346.93,532.74 339.53,547.65 332.28,558.00
             295.14,611.03 214.55,615.29 173.08,565.00
             166.36,556.85 160.64,547.87 156.81,538.00
             152.86,527.81 150.02,516.98 150.00,506.00
             150.00,506.00 150.00,494.00 150.00,494.00
             150.04,470.57 161.70,447.04 177.29,430.04
             207.94,396.61 268.08,389.05 305.00,416.00
             305.00,416.00 343.00,377.00 343.00,377.00
             343.00,377.00 416.00,304.00 416.00,304.00
             409.31,297.44 404.94,284.05 402.63,275.00 Z
           M 451.00,248.00
           C 450.99,252.33 450.76,256.74 451.67,261.00
             455.98,281.21 474.93,298.75 496.00,299.00
             506.75,299.12 511.91,299.32 522.00,294.51
             549.66,281.32 558.31,242.56 538.68,219.00
             525.53,203.23 510.71,199.34 491.00,201.30
             468.27,205.60 451.04,224.61 451.00,248.00 Z
           M 201.00,498.00
           C 200.99,502.33 200.76,506.74 201.67,511.00
             205.98,531.21 224.93,548.75 246.00,549.00
             256.75,549.12 261.91,549.32 272.00,544.51
             299.66,531.32 308.31,492.56 288.68,469.00
             275.53,453.23 260.71,449.34 241.00,451.30
             218.27,455.60 201.04,474.61 201.00,498.00 Z
           M 701.00,498.00
           C 700.99,502.33 700.76,506.74 701.67,511.00
             705.98,531.21 724.93,548.75 746.00,549.00
             756.75,549.12 761.91,549.32 772.00,544.51
             799.66,531.32 808.31,492.56 788.68,469.00
             775.53,453.23 760.71,449.34 741.00,451.30
             718.27,455.60 701.04,474.61 701.00,498.00 Z
           M 451.00,748.00
           C 450.99,752.33 450.76,756.74 451.67,761.00
             455.98,781.21 474.93,798.75 496.00,799.00
             506.75,799.12 511.91,799.32 522.00,794.51
             549.66,781.32 558.31,742.56 538.68,719.00
             525.53,703.23 510.71,699.34 491.00,701.30
             468.27,705.60 451.04,724.61 451.00,748.00 Z" />
</svg>
